<?xml version="1.0" encoding="UTF-8" standalone="no"?>
<svg
   xmlns:dc="http://purl.org/dc/elements/1.1/"
   xmlns:cc="http://creativecommons.org/ns#"
   xmlns:rdf="http://www.w3.org/1999/02/22-rdf-syntax-ns#"
   xmlns:svg="http://www.w3.org/2000/svg"
   xmlns="http://www.w3.org/2000/svg"
   xmlns:sodipodi="http://sodipodi.sourceforge.net/DTD/sodipodi-0.dtd"
   xmlns:inkscape="http://www.inkscape.org/namespaces/inkscape"
   width="315.89981pt"
   height="436.99997pt"
   viewBox="0 0 315.89981 436.99997"
   version="1.1"
   id="svg2"
   inkscape:version="0.91 r13725"
   sodipodi:docname="sadroxy.svg"
   inkscape:export-filename="C:\Users\Jarren\Desktop\rawkster_vectorized.png"
   inkscape:export-xdpi="90"
   inkscape:export-ydpi="90">
  <metadata
     id="metadata54">
    <rdf:RDF>
      <cc:Work
         rdf:about="">
        <dc:format>image/svg+xml</dc:format>
        <dc:type
           rdf:resource="http://purl.org/dc/dcmitype/StillImage" />
        <dc:title></dc:title>
      </cc:Work>
    </rdf:RDF>
  </metadata>
  <defs
     id="defs52">
    <filter
       style="color-interpolation-filters:sRGB"
       inkscape:label="Drop Shadow"
       id="filter4764">
      <feFlood
         flood-opacity="0.498039"
         flood-color="rgb(255,255,255)"
         result="flood"
         id="feFlood4766" />
      <feComposite
         in="flood"
         in2="SourceGraphic"
         operator="in"
         result="composite1"
         id="feComposite4768" />
      <feGaussianBlur
         in="composite1"
         stdDeviation="6"
         result="blur"
         id="feGaussianBlur4770" />
      <feOffset
         dx="0"
         dy="0"
         result="offset"
         id="feOffset4772" />
      <feComposite
         in="SourceGraphic"
         in2="offset"
         operator="over"
         result="composite2"
         id="feComposite4774" />
    </filter>
  </defs>
  <sodipodi:namedview
     pagecolor="#888888"
     bordercolor="#666666"
     borderopacity="1"
     objecttolerance="10"
     gridtolerance="10"
     guidetolerance="10"
     inkscape:pageopacity="0"
     inkscape:pageshadow="2"
     inkscape:window-width="1366"
     inkscape:window-height="749"
     id="namedview50"
     showgrid="false"
     inkscape:snap-bbox="false"
     inkscape:zoom="0.92097561"
     inkscape:cx="186.44679"
     inkscape:cy="287.16577"
     inkscape:window-x="-4"
     inkscape:window-y="342"
     inkscape:window-maximized="1"
     inkscape:current-layer="svg2"
     showguides="false"
     fit-margin-top="-30"
     fit-margin-left="-20"
     fit-margin-right="-20"
     fit-margin-bottom="-25">
    <inkscape:grid
       type="xygrid"
       id="grid4398"
       originx="12.155668"
       originy="16.000051" />
  </sodipodi:namedview>
  <g
     id="g4422"
     style="filter:url(#filter4764)"
     inkscape:export-xdpi="90"
     inkscape:export-ydpi="90"
     transform="translate(12.155667,10.999973)">
    <g
       id="g4400">
      <path
         d="m 132.47,0 32.07,0 c 12.89,1.49 24.77578,2.0088794 38.30356,5.4273277 C 212.44,8.199332 221.58,12.85 229.77,18.2 c 12.49,7.91 24.61,16.52 35.53,26.51 18.2,18.59 23.9,46.24 21.82,71.44 -2.6,11.88 -5.36,24 -11.39,34.69 -6.76,12.72 -17.31,22.77 -27.01,33.21 14.8,0.01 30.93581,0.0328 45.36581,-3.72716 L 293,181.44 c -8.76,4.94 -17.62,9.76 -26.92,13.61 -11.75,4.55 -24.58,4.46 -36.98,4.51 -4.26,-0.06 -8.29,1.6 -11.94,3.66 -5.8,3.25 -11.83,6.1 -18.1,8.33 -5.23,1.83 -10.6,3.26 -15.79,5.2 -18.85,2.08 -37.99,2.92 -56.78,-0.19 -9.91,-1.52 -18.84,-6.39 -28.02,-10.1 -5.01,-2.01 -10.39,0.3 -15.44,1.14 -0.4,0.06 -1.2,0.19 -1.6,0.25 -16.57,1.38 -32.89,-1.7 -48.74,-6.15 C 20.89,198.8 9.8,193.45 0,186.3 l -2.4973517,-1.99432 C 12.612648,187.95568 30.8,189.45 46.29,188.47 37.96,177.56 28.56,167.44 21.32,155.72 14.13,143.01 8.2,128.94 8.81,114.03 9.23,103.11 8.2348922,92.148448 13.74778,81.664224 21.229095,64.934245 43.09,33.59 67.82,20.68 87.21,8.48 109.94,2.74 132.47,0 Z"
         id="path6"
         inkscape:connector-curvature="0"
         style="fill:#fefefe"
         sodipodi:nodetypes="cccccccccccccccccccccccccccc" />
      <path
         d="M 35.377899,89.389214 C 37.327518,86.816566 46.54,82.91 55.03,83.02 c 9.63,-0.56 18.58,3.25 27.79,5.29 13.18,4.02 26.72,6.7 39.86,10.84 8.52,2.63 17.35,3.95 26.14,5.31 9.46,2.16 19.05,3.86 28.76,4.4 -11.46161,-7.89568 -12.66038,-6.49134 -30.38297,-23.282839 16.5,3.44 33.89297,8.522839 50.64297,10.792839 11.92,2.37 22.67444,2.864892 36.07,4.53 -2.81,1.02 -6.68134,1.24933 -9.67134,1.30933 C 201.45866,100.96933 179.2,99.46 157.86,90.83 c 10.58,7.57 21.39,14.82 32.29,21.93 -14.62201,-0.93511 -26.34933,-0.82134 -39.93,-3.35 -25.39,-5.85 -50.9,-11.24 -75.94,-18.48 -3.61,15.2 -7.68,30.85 -5.1,46.56 1.47,18.17 11.47,34.06 14.62,51.85 -11.23,-11.31 -21.76,-23.37 -33.9,-33.73 4.91,13.71 14.99,24.61 25.16,34.67 C 54.72,180.41 46.97,157.71 38.1,138.54 50.38,149.79 62.36,161.39 74.94,172.31 72.41,165.86 68.8,159.82 66.91,153.15 62.3,131.93 63.19,109.43 69.74,88.72 62.16,85.73 53.271388,86.007161 45.8,87.647225 34.791356,91.237352 30.94,101.09 34.92,110.05 c 2.99,5.49 12.1,5.5 15.65,0.57 1.24,-2.82 2.401515,-4.51417 0.988485,-7.8842 C 49.988676,99.328485 44.27,99.42 41.81,103.56 c -0.41,-1.36 0.109567,-1.89248 1.189216,-3.05122 3.847195,-3.203961 9.077562,-3.073947 11.268505,1.95478 C 55.431945,107.86356 53.4,114.97 47.47,116.62 44.16,117.63 40.618612,117.63845 37.118581,116.41281 32.922839,114.49716 30.478448,110.51712 29.96,104.97 29.94531,100.68805 31.927899,92.559214 35.377899,89.389214 Z"
         id="path10"
         inkscape:connector-curvature="0"
         style="fill:#d4d4d4"
         sodipodi:nodetypes="ccccccccccccccccccccccccccccccccc" />
      <path
         d="m 98.14,125.78 c 5.88,-8.22 15.07578,-12.999 25.72644,-14.12067 7.53,-1.03 15.73356,0.21067 21.91356,4.92067 -9.29389,-0.95745 -15.25632,-3.72233 -29.12012,0.12556 C 104.54709,121.347 104.94,121.98 98.14,125.78 Z"
         id="path12"
         inkscape:connector-curvature="0"
         style="fill:#d4d4d4"
         sodipodi:nodetypes="ccccc" />
      <path
         d="m 200.2,116.64 c 6.93,-5.52 16.37,-5.06 24.71,-4.49 8.67,1.65 18.31,5.42 22.87,13.5 -7.11,-4.93 -14.76,-10.33 -23.8,-10.44 -8.01,-0.98 -15.86,0.75 -23.78,1.43 z"
         id="path14"
         inkscape:connector-curvature="0"
         style="fill:#d4d4d4" />
      <path
         d="m 99.85,136.85 c 7.79,1.65 15.49,4.29 23.57,3.65 10.12,-1.44 20.47,0.73 29.27,5.85 -6.43,-1.45 -12.88,-3.35 -19.54,-3.18 -8.96,0.63 -18.02,1.94 -26.31,5.56 -3.95,1.35 -7.53,3.79 -11.65,4.57 -2.53,-0.6 -4.66,-2.19 -6.79,-3.6 1.45,-0.26 2.91,-0.51 4.36,-0.75 -1.47,-1.75 -2.88,-3.54 -4.24,-5.37 7.49,0.89 15.04,1.19 22.57,1.6 -4.49,-1.66 -8.29,-4.6 -11.24,-8.33 z"
         id="path16"
         inkscape:connector-curvature="0"
         style="fill:#d4d4d4" />
      <path
         d="m 197.69,148.72 c 13.53,-6.34 29.07,-3.38 42.72,-9.41 -2.88,4.06 -6.85,7.2 -11.55,8.92 7.55,-0.37 15.11,-0.73 22.62,-1.66 -1.36,1.83 -2.77,3.63 -4.24,5.38 1.45,0.24 2.91,0.49 4.36,0.75 -2.78,1.69 -5.93,4.68 -9.39,3.05 -6.59,-2.3 -12.79,-5.78 -19.67,-7.2 -8.18,-2.07 -16.6,-0.53 -24.85,0.17 z"
         id="path18"
         inkscape:connector-curvature="0"
         style="fill:#d4d4d4" />
      <path
         d="m 125.05426,152.05426 c 4.2429,-0.16707 8.68438,1.23574 10.54438,4.34574 4.48,11.6 -18.68561,11.95142 -18.01867,0.59 0.79722,-3.59142 4.53571,-4.47855 7.47429,-4.93574 z"
         id="path20"
         inkscape:connector-curvature="0"
         style="fill:#d4d4d4"
         sodipodi:nodetypes="cccc" />
      <path
         d="m 211.19967,154.98933 c 4.98,-0.57799 13.71033,0.96067 12.08033,7.91067 -0.24077,3.55933 -11.5,6.12 -16.53,2.38 -2.52,-1.45 -2.95489,-4.14611 -1.7,-7.07 1.129,-1.86389 3.83967,-2.86067 6.14967,-3.22067 z"
         id="path22"
         inkscape:connector-curvature="0"
         style="fill:#d4d4d4"
         sodipodi:nodetypes="ccccc" />
      <path
         d="m 155.38,177.34 c 12.12644,-0.53866 26.8001,-2.76406 36.89852,4.52006 1.98401,1.13987 7.85148,7.76994 9.24148,13.08994 -1.24,-0.08 -2.47,-0.16 -3.7,-0.23 -2.83,-6.57 -7.99577,-12.25272 -15.39,-14.15 -9.79,-0.79 -20.05,-1.88 -29.56,1.27 -6.76283,1.76893 -11.90793,9.39212 -14.22739,13.86536 l -4.86261,0.0247 c 4.32,-8.75 11.54,-16.76 21.6,-18.39 z"
         id="path24"
         inkscape:connector-curvature="0"
         style="fill:#d4d4d4"
         sodipodi:nodetypes="cccccccccc" />
    </g>
    <g
       id="g4411">
      <path
         d="m 32.69,201.7 c 15.85,4.45 32.17,7.53 48.74,6.15 -0.15,4.99 1.03,10.22 -0.49,15.08 -2.55,5.79 -7.67,10.08 -13.42,12.48 -1.16,-2.09 -2.08,-4.39 -3.76,-6.12 -8.03,-4.91 -20.06,-4.96 -26.46,2.72 -4.52,-4.67 -11.34,-9.47 -9.26,-16.93 0.26,-4.85 2.7,-9.07 4.65,-13.38 z"
         id="path30"
         inkscape:connector-curvature="0"
         style="fill:#d300f2" />
      <path
         d="m 83.03,207.6 c 5.05,-0.84 10.43,-3.15 15.44,-1.14 9.18,3.71 18.11,8.58 28.02,10.1 18.79,3.11 37.93,2.27 56.78,0.19 -2.21,1.97 -4.34,4.06 -6.74,5.81 -13.33,7.44 -29.24,8.76 -44.2,8.02 -18.35,-2.1 -35.54,-10.8 -49.3,-22.98 z"
         id="path32"
         inkscape:connector-curvature="0"
         style="fill:#ef92ff" />
      <path
         d="m 81.43,207.85 c 0.4,-0.06 1.2,-0.19 1.6,-0.25 13.76,12.18 30.95,20.88 49.3,22.98 14.96,0.74 30.87,-0.58 44.2,-8.02 0.48,6.56 1.17,13.09 1.84,19.63 0.9,9.84 1.69,19.8 0.47,29.66 -1.44,10.11 -5.25,19.67 -8.79,29.17 -3.53,9.54 -4.84,19.66 -5.97,29.7 -2.02,11.2 -3.14,22.54 -3.2,33.92 -53.50798,39.63831 -50.11258,7.02576 0.1,3.85 0.73,11.63 1.62,23.3 3.65,34.79 0.33,2.26 0.8,4.51 1.41,6.72 l -125.16,0 c 0.73,-16.52 -11.401982,-46.04007 4.81,-49.33 5.074285,-1.02974 -0.603886,12.73486 0.5,-4.06 1.215747,-18.49674 4.87,-36.76 7.88,-55.06 2.09,-10.46 5.07,-20.73 6.42,-31.34 2.51,-11.56 3.41,-23.51 7.03,-34.8 5.75,-2.4 10.87,-6.69 13.42,-12.48 1.52,-4.86 0.34,-10.09 0.49,-15.08 z"
         id="path34"
         inkscape:connector-curvature="0"
         style="fill:#dd00ff"
         sodipodi:nodetypes="cccccccccccccssccccc" />
      <path
         d="m 183.27,216.75 c 5.19,-1.94 10.56,-3.37 15.79,-5.2 1.98,3.91 4.08,7.83 5.25,12.08 1.4,8.44 -1.25,17.89 -8.53,22.93 -0.07,-1.87 -0.16,-3.78 -0.85,-5.56 -5.54,0.13 -11.06,0.59 -16.56,1.19 -0.67,-6.54 -1.36,-13.07 -1.84,-19.63 2.4,-1.75 4.53,-3.84 6.74,-5.81 z"
         id="path36"
         inkscape:connector-curvature="0"
         style="fill:#d300f1" />
      <path
         d="m 37.3,232.01 c 6.4,-7.68 18.43,-7.63 26.46,-2.72 1.68,1.73 2.6,4.03 3.76,6.12 -3.62,11.29 -4.52,23.24 -7.03,34.8 -1.35,10.61 -4.33,20.88 -6.42,31.34 -3.01,18.3 -5.4,36.69 -7.88,55.06 -0.17,1.35 -0.33,2.7 -0.5,4.06 -2.58,16.34 -4.08,32.81 -4.81,49.33 l -34.69,0 c 2.53,-11.69 2.67,-23.77 5.43,-35.42 2.495551,-16.49716 4.897225,-33.06426 7.098517,-49.90858 C 22.165805,307.32284 24.11,290.49 27.24,273.46 28.79,259.25 33.38,245.67 37.3,232.01 Z"
         id="path38"
         inkscape:connector-curvature="0"
         style="fill:#b600d2"
         sodipodi:nodetypes="ccccccccccccc" />
      <path
         d="m 178.37,242.19 c 5.5,-0.6 11.02,-1.06 16.56,-1.19 0.69,1.78 0.78,3.69 0.85,5.56 3.14,54.42 -0.43,109 2,163.44 l -31.74,0 c -0.61,-2.21 -1.08,-4.46 -1.41,-6.72 0.26,-24.18 1.1,-48.4 -0.55,-72.56 1.13,-10.04 2.44,-20.16 5.97,-29.7 3.54,-9.5 7.35,-19.06 8.79,-29.17 1.22,-9.86 0.43,-19.82 -0.47,-29.66 z"
         id="path40"
         inkscape:connector-curvature="0"
         style="fill:#b600d1" />
      <path
         d="m 101.47456,280.10067 c 5.24833,-10.39678 15.86155,-17.78922 29.45866,-18.05222 C 142.17066,262.33789 147.51,269.46 151.65,277.5 c -7.11,-4.77 -15.89,-7.02 -24.35,-5.17 -3.94,1.21 -7.26,4.37 -8.82,8.16 -2.43,5.96 0.21988,10.58356 6.39134,13.72833 8.99611,3.22334 17.43866,-0.54833 25.60866,-4.86833 -6.19,7 -13.67,13.98 -23.59,14.45 -6.91,0.27 -15.36,1.49 -20.97,-3.71 -6.27,-4.48 -7.340334,-13.58 -4.44544,-19.98933 z"
         id="path42"
         inkscape:connector-curvature="0"
         style="fill:#ef91ff"
         sodipodi:nodetypes="cccccccccc" />
      <path
         d="m 46.19,356.61 c 6.12,0.21 12.51,-0.39 18.3,1.99 13.96,5.05 24.51,15.98 34.77,26.22 3.37,3.34 9.94297,5.40613 12.65142,0.22284 C 113.31168,379.99419 108.27,377.16 105.85,373.4 c 5.82,2.17 11.27384,10.68806 6.7926,15.67492 -6.0634,2.70566 -10.48472,1.33025 -11.89938,0.6858 -4.851943,-1.88295 -7.37322,-5.83067 -10.73322,-8.76067 -7.02,-7.45 -15.644892,-14.49289 -25.164892,-18.65289 -6.21,-3.39 -12.455108,-1.62711 -19.155108,-1.67711 0.17,-1.36 0.33,-2.71 0.5,-4.06 z"
         id="path46"
         inkscape:connector-curvature="0"
         style="fill:#ffffff"
         sodipodi:nodetypes="cccccccccccc" />
      <path
         d="m 143.51,372.48 c 4.72,-4.51 11.26,-6.13 17.37,-7.84 0.01,1.28 0.04,2.56 0.1,3.85 -12.94,0.38 -20.10896,12.09905 -29.30322,19.41195 -4.40861,2.44423 -7.59626,3.19521 -10.97277,1.07211 C 116.98217,383.57184 121.67,375.8 128.13,373.81 c -3.96,3.52 -7.59751,8.73872 -5.06289,13.14061 C 129.99571,390.78829 137.2,378.24 143.51,372.48 Z"
         id="path48"
         inkscape:connector-curvature="0"
         style="fill:#ffffff"
         sodipodi:nodetypes="cccccccc" />
    </g>
  </g>
</svg>
